<?xml version="1.0" encoding="utf-8"?>
<!-- Generator: Adobe Illustrator 24.0.3, SVG Export Plug-In . SVG Version: 6.00 Build 0)  -->
<svg version="1.1" id="Layer_1" xmlns="http://www.w3.org/2000/svg" xmlns:xlink="http://www.w3.org/1999/xlink" x="0px" y="0px"
	 viewBox="0 0 60.2 72" style="enable-background:new 0 0 60.2 72;" xml:space="preserve">
<style type="text/css">
	.st0{fill-rule:evenodd;clip-rule:evenodd;fill:#FFFFFF;}
</style>
<title>misc / logo  / visit abu dhabi / colour@1.5x</title>
<g id="Symbols">
	<g id="components-_x2F_-global-_x2F_-header-_x2F_-white" transform="translate(-92.000000, -24.000000)">
		<g id="AbuDhabi-Logo" transform="translate(92.000000, 24.000000)">
			<path id="Fill-18" class="st0" d="M27.6,26.6c1.8,0.9,1.5,3.4,2.1,5.7c0.6,2.2,2.4,2.4,2.4,2.4s3.7-7.2,0.5-13
				c-3.2-5.8-8.4-3.8-9.8-3.2c-1.8,0.8-8.6,5.2-12,14.5c-3.4,9.1,1.5,12.3,4.5,12.8c3,0.5,7.6-2.5,7.8-4.1c0.1-0.8-0.5-1.3-1.4-1.5
				c-0.9-0.2-3.3,0.3-4.9-1.5c-1.9-2.3,1.4-7.3,3.2-9.1C22,27.6,24.8,25.2,27.6,26.6 M59.1,32.9l0-0.1c-0.2-1.9-0.8-3.8-1.2-3.8
				c-1.8-0.1-4.2,12.7-5.7,19.8c-0.1,0.7-0.2,1.4-0.7,2.2c-0.3,0.6-0.5,0.8-0.7,1.1c-0.3,0.3-0.7,0.6-0.6,0
				c3.3-17.2,5.3-26.5,7.2-30.2c0.2-0.4,0.4-0.6,0.6-0.7c-0.4-0.8-0.7-1.6-1.2-2.4C46.9,0.2,19.8-4.3,4.7,4
				c-6.6,3.6-6,20.9,2.8,38.4c-0.8-4.9,0.3-9.3,2.7-14.3c3.3-6.8,13.8-16.7,21.7-13.7c6.7,2.6,4.1,13.2,4.1,13.2s4.7-6.3,8.4-6.5
				c2-0.1,5.3,1.3,1.3,8C41,37,33.1,40.4,30.3,38.8c-2.4-1.4-2.5-4.2-2.6-4.9c-0.2-0.7-0.6-3.2-2.8-3.4c-2.3-0.2-6.4,3-5.9,4.4
				c0.4,1.2,3.4,0.3,4.8,1.1c1.4,0.9,1.9,2.2,1.4,4.5c-1.5,6.9-7.2,11-11.1,10c-0.9-0.2-1.9-0.6-2.7-1.1c1.2,2,2.5,3.8,3.8,5.6
				l1.2-2c0-0.1,0.1-0.1,0.2-0.1c2.3,0.1,5.1-0.8,6.4-1.9c-1,3.3-2.4,5.5-6.9,5c0,0.1,0.1,0.1,0.1,0.2c0.9,0.4,1.9,0.9,3,1.3
				c6.8,2.6,12.9-0.9,14-1.6c0.8-0.6,4.3-2.6,5.8-5.4c-0.6,0.1-1.1,0.1-1.7,0.1c-0.4,0-0.9-0.1-1-0.1c-0.7,0-4.3-0.6-1.9-6
				c0.4-1,2-4.7,4.2-3.9c0.7,0.2,2.3,0.9,2.9,3.5c0.1,0.4,0.2,0.9,0.2,1.3c2.1-1.3,3.8-3.4,4.2-5.7c0.4-2.2-0.1-3.4-0.7-3.5
				c-0.8-0.1-2.4,4.1-2.6,3.9c-0.2-0.1,0-0.7,0.2-1.3c1.5-4.9,3.6-6.8,4.3-6.8c0.7,0,1.7,2.3,1.7,5.3c0,4.8-2.8,10.3-7.2,12.4
				c-0.4,2.2-1.2,4.2-2.3,5.5c-3,3.7-9.3,7.6-17.3,5.8c-0.7-0.2-1.3-0.3-2-0.5c0.7,0.8,1.4,1.5,2.1,2.2c0.3,0.1,0.8,0.2,1.8,0.3
				c3.4,0.6,10.7,0.7,18.2-2c8.6-3.1,11.3-7.9,13.3-11.2C59.4,43,59.5,35.1,59.1,32.9 M44.6,17.3c-0.4,0.4-1.7,1.7-2.1,2.1
				c-0.1,0.1-0.2,0.1-0.3,0c-0.4-0.4-1.7-1.7-2.1-2.1c-0.1-0.1-0.1-0.2,0-0.3c0.4-0.4,1.7-1.7,2.1-2.1c0.1-0.1,0.2-0.1,0.3,0
				c0.4,0.4,1.7,1.6,2.1,2.1C44.7,17.1,44.7,17.3,44.6,17.3 M31.9,43.5c-0.4,0.4-1.7,1.7-2.1,2.1c-0.1,0.1-0.2,0.1-0.3,0
				c-0.4-0.4-1.7-1.7-2.1-2.1c-0.1-0.1-0.1-0.2,0-0.3c0.4-0.4,1.7-1.7,2.1-2.1c0.1-0.1,0.2-0.1,0.3,0c0.4,0.4,1.7,1.6,2.1,2.1
				C31.9,43.3,31.9,43.5,31.9,43.5 M48.8,51.7c-0.4,0.4-1.7,1.7-2.1,2.1c-0.1,0.1-0.2,0.1-0.3,0c-0.4-0.4-1.7-1.7-2.1-2.1
				c-0.1-0.1-0.1-0.2,0-0.3c0.4-0.4,1.7-1.7,2.1-2.1c0.1-0.1,0.2-0.1,0.3,0c0.4,0.4,1.7,1.6,2.1,2.1C48.9,51.4,48.9,51.6,48.8,51.7
				 M37.8,42.9c-1.3-0.3-2.8,3.7-1.2,4c0.2,0,0.4,0.1,0.7,0v0c0.8,0,1.5-0.2,2.3-0.5C39.4,44.1,38.8,43.1,37.8,42.9 M43,64.6
				c-3.9,1.4-10.3,2.6-16.1,1.1c-1.3-0.3-2.2-0.7-2.9-1c6.8,6,13.4,8.6,17.5,6.3c5.4-3,10.1-8.1,13.6-14.3
				C51.8,60.6,47,63.1,43,64.6 M44.7,25.8c-1.1-1.2-4.8,0.5-7.1,3.2c-2,2.3-3.3,5.7-3.3,5.7c0.5-0.1,4.1-1.8,7.4-4.3
				C42.8,29.4,45.8,27.1,44.7,25.8"/>
		</g>
	</g>
</g>
</svg>
